<?xml version="1.0" standalone="no"?>
<!DOCTYPE svg PUBLIC "-//W3C//DTD SVG 20010904//EN"
 "http://www.w3.org/TR/2001/REC-SVG-20010904/DTD/svg10.dtd">
<svg version="1.0" xmlns="http://www.w3.org/2000/svg"
 width="347.000000pt" height="347.000000pt" viewBox="0 0 347.000000 347.000000"
 preserveAspectRatio="xMidYMid meet">
<metadata>
Created by potrace 1.11, written by Peter Selinger 2001-2013
</metadata>
<g transform="translate(0.000000,347.000000) scale(0.100000,-0.100000)"
fill="#000000" stroke="none">
<path d="M1740 3003 c0 -5 -2 -87 -3 -183 l-2 -175 -95 -61 c-52 -35 -147 -96
-210 -137 -63 -41 -187 -122 -275 -179 -88 -58 -175 -113 -192 -123 -18 -11
-33 -23 -33 -27 0 -4 -4 -8 -10 -8 -5 0 -82 -48 -172 -107 -90 -58 -219 -143
-288 -188 -69 -45 -135 -87 -147 -94 -60 -31 8 -111 105 -124 l27 -4 3 -412 2
-412 -34 -35 c-30 -31 -36 -33 -61 -24 -34 13 -93 7 -133 -14 -27 -14 -65 -72
-57 -87 3 -3 -7 -12 -21 -20 -14 -7 -35 -26 -46 -41 -10 -15 -25 -28 -32 -28
-20 0 -66 -39 -66 -56 0 -12 230 -14 1668 -14 l1668 0 24 33 c14 17 25 39 27
47 3 21 -24 60 -42 60 -8 0 -21 10 -29 23 -15 22 -18 83 -17 290 l1 87 28 0
c36 0 103 43 125 82 12 20 17 52 17 101 0 84 -18 122 -73 156 l-35 21 19 37
c24 46 25 123 2 166 -34 67 -127 118 -188 103 -24 -6 -25 -5 -15 14 6 11 8 20
4 20 -3 0 -1 6 5 13 8 11 -28 38 -176 133 -102 65 -201 128 -219 139 -18 11
-154 99 -303 195 -148 96 -287 185 -308 198 -21 12 -123 77 -227 145 l-189
122 -1 40 c-1 29 5 45 19 56 29 23 111 47 185 55 36 3 83 10 105 14 39 9 116
38 105 40 -3 1 -16 3 -30 6 -14 2 -88 36 -165 75 -101 51 -152 71 -182 72 -24
1 -43 5 -43 10 0 4 -4 7 -10 7 -5 0 -10 -3 -10 -7z m1330 -1423 c-6 -11 -15
-20 -21 -20 -6 0 -6 7 1 20 6 11 15 20 21 20 6 0 6 -7 -1 -20z m39 -257 c16
-13 35 -23 41 -23 7 0 2 -16 -10 -36 -30 -47 -30 -126 -1 -183 12 -22 25 -41
29 -41 4 0 8 -63 8 -140 l1 -140 -36 0 c-39 -1 -61 -13 -79 -45 -9 -15 -11 62
-11 330 0 301 2 347 13 325 8 -14 28 -35 45 -47z m142 -333 c18 -10 19 -23 19
-169 0 -138 -2 -160 -16 -165 -9 -4 -20 -4 -23 0 -8 8 -15 344 -6 344 3 0 15
-5 26 -10z"/>
</g>
</svg>
